<svg xmlns="http://www.w3.org/2000/svg" aria-hidden="true" style="position:absolute;width:0;height:0;overflow:hidden">
  <defs>
    <symbol id="icon-ai-chip" viewBox="0 0 32 32">
      <path fill="#fff" d="M10.312.25a.977.977 0 0 1 .438.438c.005.191.007.381.006.573v.172l-.002.544-.001.369-.003.905h2.5l-.011-.547-.006-.527-.006-.365a30.75 30.75 0 0 1-.007-.526l-.005-.164c0-.268.014-.442.186-.654.25-.237.418-.241.753-.239.257.036.36.147.535.335.107.215.07.462.069.698v.172l-.002.544-.001.369-.003.905h2.5l-.011-.547-.006-.527-.006-.365a30.75 30.75 0 0 1-.007-.526l-.005-.164c0-.268.014-.442.186-.654.25-.237.418-.241.753-.239.257.036.36.147.535.335.107.215.07.462.069.698v.172l-.002.544-.001.369-.003.905h2.5l-.011-.547-.006-.527-.006-.365a30.75 30.75 0 0 1-.007-.526l-.005-.164c0-.268.014-.442.186-.654.25-.237.418-.241.753-.239.257.036.36.147.535.335.107.215.07.462.069.698v.172l-.002.544-.001.369-.003.905.209-.002c.649-.006 1.299-.011 1.948-.014l1.001-.007c.322-.003.644-.005.967-.006l.369-.003c.172-.002.344-.003.517-.002l.154-.003c.257.002.415.025.618.19.254.262.228.463.227.812v.164l-.001.54v.374l-.001.985-.001 1.004-.003 1.971.229-.005c.282-.006.563-.009.845-.012l.365-.006c.175-.004.351-.006.526-.007l.164-.005c.268 0 .442.014.654.186.237.25.241.418.239.753-.036.257-.147.36-.335.534-.215.107-.462.07-.698.069h-.172l-.545-.002-.369-.001-.905-.003v2.5l.547-.011.527-.006.365-.006c.175-.004.351-.006.526-.007l.164-.005c.268 0 .442.014.654.186.237.25.241.418.239.753-.036.257-.147.36-.335.535-.215.107-.462.07-.698.069h-.172l-.545-.002-.369-.001-.905-.003v2.5l.547-.011.527-.006.365-.006c.175-.004.351-.006.526-.007l.164-.005c.268 0 .442.014.654.186.237.25.241.418.239.753-.036.257-.147.36-.335.535-.215.107-.462.07-.698.069h-.172l-.545-.002-.369-.001-.905-.003v2.5l.547-.011.527-.006.365-.006c.175-.004.351-.006.526-.007l.164-.005c.268 0 .442.014.654.186.237.25.241.418.239.753-.036.257-.147.36-.335.535-.215.107-.462.07-.698.069h-.172l-.545-.002-.369-.001-.905-.003.002.209c.006.649.011 1.299.014 1.948l.007 1.001c.003.322.005.644.006.967l.003.369c.002.172.003.344.002.517l.003.154c-.002.257-.025.415-.19.618-.262.254-.463.228-.812.227h-.164l-.54-.001h-.374l-.985-.001-1.004-.001-1.971-.003.005.229c.006.282.009.563.012.845l.006.365c.004.175.006.351.007.526l.005.164c0 .268-.014.442-.186.654-.25.237-.418.241-.753.239-.257-.036-.36-.147-.534-.335-.107-.215-.07-.462-.069-.698v-.172l.002-.545.001-.369.003-.905h-2.5l.011.547.006.527.006.365c.004.175.006.351.007.526l.005.164c0 .268-.014.442-.186.654-.25.237-.418.241-.753.239-.257-.036-.36-.147-.534-.335-.107-.215-.07-.462-.069-.698v-.172l.002-.545.001-.369.003-.905h-2.5l.011.547.006.527.006.365c.004.175.006.351.007.526l.005.164c0 .268-.014.442-.186.654-.25.237-.418.241-.753.239-.257-.036-.36-.147-.534-.335-.107-.215-.07-.462-.069-.698v-.172l.002-.545.001-.369.003-.905h-2.5l.011.547.006.527.006.365c.004.175.006.351.007.526l.005.164c0 .268-.014.442-.186.654-.25.237-.418.241-.753.239-.257-.036-.36-.147-.534-.335-.107-.215-.07-.462-.069-.698v-.172l.002-.545.001-.369.003-.905-.209.002c-.649.006-1.298.011-1.948.014l-1.001.007-.966.006-.369.003c-.172.002-.344.003-.517.003l-.154.003c-.257-.002-.415-.025-.618-.189-.254-.262-.228-.463-.226-.812v-.164l.001-.54v-.374l.002-.985.001-1.004.003-1.971-.229.005a79.36 79.36 0 0 1-.845.012l-.365.006a30.75 30.75 0 0 1-.526.007l-.164.005c-.268 0-.442-.014-.654-.186-.237-.25-.241-.418-.239-.753.036-.257.147-.36.335-.534.215-.107.462-.07.698-.069h.172l.544.002.369.001.905.003v-2.5l-.547.011-.527.006-.365.006a30.75 30.75 0 0 1-.526.007l-.164.005c-.268 0-.442-.014-.654-.186-.237-.25-.241-.418-.239-.753.036-.257.147-.36.335-.534.215-.107.462-.07.698-.069h.172l.544.002.369.001.905.003v-2.5l-.547.011-.527.006-.365.006a30.75 30.75 0 0 1-.526.007l-.164.005c-.268 0-.442-.014-.654-.186-.237-.25-.241-.418-.239-.753.036-.257.147-.36.335-.534.215-.107.462-.07.698-.069h.172l.544.002.369.001.905.003v-2.5l-.547.011-.527.006-.365.006a30.75 30.75 0 0 1-.526.007l-.164.005c-.268 0-.442-.014-.654-.186-.237-.25-.241-.418-.239-.753.036-.257.147-.36.335-.534.215-.107.462-.07.698-.069h.172l.544.002.369.001.905.003-.002-.209a420.66 420.66 0 0 1-.014-1.948l-.007-1.001-.006-.966-.003-.369a29.662 29.662 0 0 1-.002-.517l-.003-.154c.002-.257.025-.415.19-.618.262-.254.463-.228.812-.226h.164l.54.001h.374l.985.002 1.004.001 1.971.003-.005-.229a79.36 79.36 0 0 1-.012-.845l-.006-.365a30.75 30.75 0 0 1-.007-.526l-.005-.164c0-.268.014-.442.186-.654.277-.264.541-.269.912-.217zM4.75 4.75v22.5h22.5V4.75H4.75z" style="fill:var(--color1, #fff)"/>
      <path fill="#fff" d="m14.484 11.227.224-.007.217-.002.198-.004c.259.05.41.14.565.349.123.265.207.539.293.818l.08.25c.071.223.141.446.21.67l.17.542c.176.558.348 1.116.52 1.675l.264.854.215.698c.123.4.246.8.375 1.198l.121.376.149.457c.128.399.239.791.165 1.212a.98.98 0 0 1-.438.437c-.136.017-.136.017-.297.023l-.159.009a.82.82 0 0 1-.544-.345 5.525 5.525 0 0 1-.273-.758l-.067-.208c-.159-.502-.159-.502-.159-.722h-3.625l-.125.563c-.051.195-.111.386-.172.578l-.043.147c-.11.344-.229.516-.535.712-.254.066-.512.062-.746-.066-.173-.14-.302-.263-.331-.488-.017-.502.124-.941.277-1.414l.083-.267a212.802 212.802 0 0 0 .461-1.458l.287-.91c.194-.613.386-1.226.575-1.841a282.174 282.174 0 0 1 .408-1.32c.065-.213.131-.425.198-.638l.056-.188c.11-.348.225-.587.484-.847.27-.135.626-.082.922-.086zm-.046 1.898-.489 1.558-.227.723-.219.698-.084.267a170.198 170.198 0 0 0-.184.588c-.053.158-.053.158-.047.292h2.625c-.147-.543-.147-.543-.306-1.081l-.064-.208-.067-.217-.071-.228-.184-.593-.189-.609-.369-1.188h-.125zM20.812 11.25a.965.965 0 0 1 .437.438c.007.113.009.227.01.34l.002.219.001.241.002.253c.002.278.003.555.003.833l.001.287.003 1.192c.001.569.003 1.139.007 1.709.002.401.004.801.004 1.201l.003.717c.002.225.002.45.002.675 0 .122.001.243.003.365-.004.597-.004.597-.19.828-.254.219-.425.226-.752.224-.257-.036-.36-.147-.534-.335-.081-.163-.071-.283-.072-.465l-.002-.219-.001-.241-.002-.253a115.65 115.65 0 0 1-.003-.833l-.001-.287-.003-1.192c-.001-.57-.003-1.139-.007-1.709-.002-.4-.004-.801-.004-1.201l-.003-.718c-.002-.225-.002-.45-.002-.675 0-.122-.001-.243-.003-.365.004-.597.004-.597.19-.828.284-.245.546-.253.912-.202z" style="fill:var(--color1, #fff)"/>
    </symbol>
    <symbol id="icon-arrow" viewBox="0 0 32 32">
      <path fill="none" stroke="#c86fff" stroke-linecap="round" stroke-linejoin="round" stroke-width="2" d="m6.763 21.334 18.475-10.667m0 0L14.31 7.739m10.928 2.928L22.31 21.595" style="stroke:var(--color2, #c86fff)"/>
    </symbol>
    <symbol id="icon-business" viewBox="0 0 32 32">
      <path fill="#fff" d="M17.687 9.875a9.86 9.86 0 0 1 1.192.215l.197.045.41.094.626.144.4.092.188.043c.239.055.471.112.704.191.378.123.805-.063 1.174-.171l.298-.086.131-.038c.118-.028.118-.028.305-.028l.636 1.265.295.587.339.675.108.213.099.197.087.174c.062.139.062.139.062.263h.125l.041-.144c.116-.321.27-.619.424-.924l.1-.2.317-.63.215-.428.527-1.048c.441.073.869.166 1.298.292l.166.048.343.101.522.151.336.098.155.045c.41.122.865.259 1.141.604l.087.105c.18.275.217.512.217.838l.001.25-.001.273v.288l-.002.782-.001.817c0 .516-.001 1.031-.003 1.547l-.003 1.762c-.001 1.208-.003 2.416-.006 3.623l-.731.37-.248.126-.358.181-.217.11a1.818 1.818 0 0 1-.509.15l-.007.134c-.048.797-.153 1.587-.251 2.379l-.058.474-.122.988-.14 1.142-.135 1.103-.057.468-.08.651-.024.196-.022.179-.019.155c-.021.132-.021.132-.084.319h-5.938c-.074-.37-.143-.725-.192-1.096l-.016-.123-.05-.382-.034-.263-.083-.636-.133.14c-.707.742-1.498 1.253-2.43 1.672l-.2.092c-1.745.735-3.872.687-5.625.006-1.138-.473-1.992-1.164-2.863-2.035L9.998 31h-6l-.212-1.757-.134-1.1-.212-1.747-.155-1.272a154.8 154.8 0 0 1-.082-.674l-.092-.751-.026-.226-.026-.206-.022-.18c-.046-.177-.081-.228-.226-.337a8.957 8.957 0 0 0-.415-.21l-.121-.058-.382-.181-.259-.124-.635-.302c-.006-1.238-.01-2.476-.013-3.714L.98 16.436l-.005-1.504c0-.265-.001-.531-.003-.796-.002-.25-.002-.5-.002-.75l-.002-.275c-.006-.603.02-1.007.432-1.471l.16-.141.121-.119c.282-.193.586-.267.913-.36l.212-.062.442-.128.678-.197.43-.125.205-.06.19-.054.167-.048c.141-.034.141-.034.329-.034l1.688 3.375a85.107 85.107 0 0 0 1.459-2.883l.062-.129a4.9 4.9 0 0 1 .167-.301c.226-.075.296-.043.519.029l.197.061.409.131.198.061.18.058c.448.083.928-.095 1.365-.199l.436-.102.683-.161.662-.155.206-.049.193-.045.169-.04c.16-.028.308-.033.471-.028l.047.096c.295.596.594 1.191.906 1.779.672 1.27.672 1.27.672 1.438h.125l.041-.144c.116-.321.27-.619.424-.924l.1-.2.317-.63.215-.428.527-1.048zm-5.134 1.477-.361.077-.522.112-.161.033c-.439.097-.893.224-1.157.614a6.767 6.767 0 0 0-.087.125c-.271.441-.273.884-.271 1.39v.17l.001.553v.385l.002 1.01.001 1.032.003 2.023c.247-.247.247-.247.49-.499.74-.772 1.536-1.313 2.51-1.751l.202-.092c1.514-.632 3.418-.711 4.985-.221l.129.04c1.366.431 2.453 1.249 3.433 2.273l.125.125c.004-.756.008-1.513.01-2.269.001-.351.002-.702.005-1.054l.004-1.017.002-.387c.001-.181.002-.363.001-.544l.002-.16c-.002-.412-.076-.797-.303-1.147-.58-.563-1.396-.653-2.158-.811l-.323-.069-.306-.065-.145-.031c-.236-.052-.236-.052-.476-.07l-.073.152a252.72 252.72 0 0 1-1.579 3.223l-.08.16-.225.449-.068.137c-.155.309-.155.309-.225.379l-2.25-4.5c-.365 0-.778.15-1.135.227zm-8.537.393-.139.04-.291.085c-.147.044-.295.085-.443.127l-.283.083-.133.037c-.294.09-.468.208-.664.445-.064.193-.07.325-.07.528v.214l.001.235v.248l.001.672v.703l.001 1.331.001 1.515L2 21.125l.768.397.261.135.375.194.118.061c.138.071.276.143.415.213.036.17.036.17.066.402l.017.128.053.425.038.3.102.805.105.828.225 1.779.083.659.029.234.105.828.069.551.041.326.018.146c.028.24.028.24.111.464h4c.078-.349.146-.675.192-1.026l.016-.125.033-.258.051-.392.032-.253.029-.228c.041-.432.015-.722-.178-1.109-.458-.977-.629-1.987-.633-3.059l-.001-.135c-.001-.754.034-1.512.317-2.221.162-.416.166-.806.163-1.248l.001-.363v-.387c-.001-.27 0-.54.001-.81.002-.671.003-1.342.002-2.013 0-.522 0-1.044.002-1.565v-.804l.002-.62-.002-.222c.005-.573.148-1.029.408-1.536-.119.001-.119.001-.25.063a3.275 3.275 0 0 0-.223.395l-.063.125-.203.411-.142.285-.296.598-.38.767-.362.73-.07.141-.195.395-.059.119c-.101.196-.101.196-.132.41h-.125l-.05-.162a5.597 5.597 0 0 0-.267-.622l-.058-.118-.188-.383a221.923 221.923 0 0 0-.408-.825l-.352-.716-.272-.55a31.441 31.441 0 0 0-.313-.632l-.104-.211c-.099-.168-.099-.168-.268-.214-.226-.008-.427.051-.641.114zm18.609-.12.062.125-.062-.125zm4.562 0-.856 1.705-.397.792-.383.763-.147.292-.204.408-.062.123c-.105.199-.105.199-.139.418h-.125l-.051-.164a4.983 4.983 0 0 0-.254-.586l-.11-.22-.118-.234a27.282 27.282 0 0 1-.121-.242l-.319-.634-.325-.649-.638-1.27c-.083.188-.083.188 0 .375.006.109.008.219.008.329v.433l.001.363v.391a222.499 222.499 0 0 0 .003.956l.001.283c.002.634.004 1.267.004 1.901 0 .428.001.855.003 1.283.001.226.002.452.001.677-.003.951.019 1.799.355 2.697.139.548.15 1.093.148 1.656v.133c-.004 1.158-.193 2.338-.801 3.347-.267.511-.001 1.358.073 1.903l.051.38c.051.421.051.421.154.831h4.063l.159-1.678c.042-.397.084-.794.129-1.191.057-.513.112-1.026.157-1.54.036-.407.078-.814.127-1.22.025-.215.048-.429.064-.645.105-1.309.105-1.309.542-1.699.407-.287.866-.479 1.331-.65.149-.056.287-.117.427-.191.004-1.111.008-2.222.01-3.333a798.776 798.776 0 0 1 .008-2.897l.002-.714c.001-.224.002-.448.001-.672l.002-.364-.001-.22.001-.19c-.027-.203-.089-.32-.211-.485-.157-.084-.157-.084-.341-.131l-.208-.062c-.071-.021-.143-.04-.217-.061l-.209-.062a46.41 46.41 0 0 0-1.147-.317l-.129-.034-.312-.083zM22.812 12l.063.125-.063-.125zm-10.937 6.5-.176.146a6.385 6.385 0 0 0-2.136 3.979c-.097 1.405.054 2.619.688 3.875l.099.198c.778 1.434 2.126 2.456 3.651 2.989 1.803.53 3.586.323 5.241-.55.321-.18.604-.399.884-.638l.176-.146c1.201-1.035 2.028-2.58 2.151-4.172.073-1.79-.267-3.418-1.452-4.807a66.427 66.427 0 0 0-.146-.176c-1-1.16-2.453-1.952-3.979-2.136l-.209-.025c-1.724-.162-3.468.334-4.791 1.463z" style="fill:var(--color1, #fff)"/>
      <path fill="#fff" d="M15.5 18h1v1l.238-.016c.651.002 1.176.315 1.631.756.492.525.641 1.057.631 1.759h-1.063a33.177 33.177 0 0 0-.043-.25c-.08-.351-.212-.659-.492-.895-.293-.185-.549-.214-.902-.293v2.937h.563c.684.151 1.222.561 1.625 1.125.359.66.419 1.414.27 2.147-.212.625-.647 1.179-1.231 1.496-.323.148-.603.241-.961.236l-.266-.004v1h-1v-1l-.238.016c-.651-.002-1.176-.315-1.631-.756-.492-.525-.641-1.057-.631-1.759h1.063l.043.25c.085.371.215.676.525.911.309.183.494.223.87.277V24h-.563c-.684-.151-1.222-.561-1.625-1.125-.359-.66-.419-1.414-.27-2.147.212-.625.646-1.179 1.23-1.496.323-.148.603-.241.961-.236L15.5 19v-1zm-1 2.375c-.362.438-.469.766-.462 1.332.045.424.22.709.548.977.345.226.473.253.914.253v-2.875c-.454 0-.654.039-1 .312zm2 3.688v2.875c.49 0 .694-.073 1.063-.375.295-.32.4-.63.422-1.063-.023-.517-.216-.862-.582-1.219-.336-.207-.483-.219-.902-.219zM18.375 1.687C19.193 2.308 19.83 3.22 20 4.25c.097 1.245-.072 2.315-.837 3.322-.67.77-1.601 1.359-2.637 1.441-1.261.046-2.305-.159-3.276-1.005-.77-.75-1.258-1.713-1.274-2.794.001-.636.005-1.189.274-1.776l.092-.205c.51-1.034 1.338-1.707 2.408-2.108 1.24-.367 2.559-.141 3.625.563zm-4.65 1.379c-.615.748-.754 1.554-.662 2.496.146.775.632 1.459 1.269 1.916.755.481 1.572.583 2.448.418.814-.244 1.478-.812 1.89-1.548.352-.702.396-1.564.17-2.317-.336-.856-.969-1.463-1.792-1.846-1.197-.441-2.473-.017-3.323.881zM26.979 3.02c.802.579 1.311 1.316 1.521 2.293.094 1.2-.071 2.163-.859 3.105-.535.573-1.297 1.031-2.095 1.093-1.233.03-2.167-.127-3.102-1-.785-.817-.975-1.761-.961-2.85.03-.89.44-1.621 1.042-2.262 1.201-1.102 3.085-1.268 4.454-.38zm-3.917 1.418c-.487.67-.585 1.316-.5 2.125.144.624.523 1.119 1.037 1.493.676.421 1.406.511 2.181.332.7-.264 1.215-.777 1.532-1.45.235-.574.221-1.329.004-1.906-.332-.674-.862-1.132-1.551-1.414-1.028-.277-1.999.03-2.702.821zM8.979 3.02c.802.579 1.311 1.316 1.521 2.293.094 1.2-.071 2.163-.859 3.105-.535.573-1.297 1.031-2.095 1.093-1.233.03-2.167-.127-3.102-1-.785-.817-.975-1.761-.961-2.85.03-.89.44-1.621 1.042-2.262 1.201-1.102 3.085-1.268 4.454-.38zM5.062 4.438c-.486.67-.585 1.316-.5 2.125.144.624.523 1.119 1.037 1.493.676.421 1.406.511 2.181.332.7-.264 1.215-.777 1.532-1.45.235-.574.221-1.329.004-1.906-.332-.674-.862-1.132-1.551-1.414-1.028-.277-1.999.03-2.702.821z" style="fill:var(--color1, #fff)"/>
    </symbol>
    <symbol id="icon-check-fill" viewBox="0 0 33 32">
      <path fill="#836fff" d="M16.667 28a12.003 12.003 0 0 1-12-12 12.003 12.003 0 0 1 20.485-8.486 11.999 11.999 0 0 1-8.485 20.484zm-.31-7.147 6.667-8-2.048-1.707-5.733 6.879-2.967-2.968-1.885 1.885 5.032 5.032.935-1.121z" style="fill:var(--color3, #836fff)"/>
    </symbol>
    <symbol id="icon-close" viewBox="0 0 32 32">
      <path fill="#fff" d="m8.533 25.333-1.867-1.867 7.467-7.467-7.467-7.467 1.867-1.867L16 14.132l7.467-7.467 1.867 1.867-7.467 7.467 7.467 7.467-1.867 1.867L16 17.866l-7.467 7.467z" style="fill:var(--color1, #fff)"/>
    </symbol>
    <symbol id="icon-group" viewBox="0 0 32 32">
      <path fill="#fff" d="M21.063 19.75c.13.101.25.21.37.322.515.459 1.035.586 1.72.572.61-.051.958-.291 1.393-.705.193-.171.32-.237.579-.251.224.055.42.146.625.25l.178.09c1.284.701 2.176 1.814 2.637 3.199.159.558.217 1.133.248 1.711l.012.231.007.234.007.215c-.033.239-.107.339-.277.508-.219.073-.39.071-.621.071l-.134.001-.447.001-.32.001-.87.001-.543.001-1.7.002c-.654 0-1.309.001-1.963.003l-1.517.002-.906.001-.852.001-.313.001H17.708c-.286-.032-.445-.135-.645-.336-.14-1.61.22-3.303 1.269-4.559.544-.62 1.811-1.879 2.731-1.566zm-1.613 2.04c-.883.948-1.165 2.003-1.262 3.272h9.437c0-1.296-.328-2.374-1.25-3.313-.323-.293-.665-.567-1.062-.75-.209.025-.337.115-.504.238-.732.503-1.569.581-2.434.512-.562-.104-1.213-.338-1.625-.75-.468 0-.969.483-1.3.79zM7.25 19.75c.13.117.245.242.364.37.471.447 1.035.529 1.657.521.604-.044.978-.279 1.399-.703a.957.957 0 0 1 .456-.251c.705.045 1.364.551 1.875 1l.141.112c1.039.851 1.599 2.154 1.745 3.462.038.39.066.78.074 1.172l.005.24c-.029.201-.029.201-.144.35-.245.184-.458.172-.756.173l-.134.001-.447.001-.32.001-.87.001-.543.001-1.7.002c-.654 0-1.309.001-1.963.003l-1.517.002-.906.001-.852.001-.313.001H3.833a.887.887 0 0 1-.52-.211c-.394-.591-.055-1.84.063-2.5.223-1.03.765-1.836 1.5-2.563l.152-.154c.506-.486 1.495-1.276 2.223-1.033zm-1.625 2c-.909.958-1.25 1.998-1.25 3.313h9.438c-.101-1.411-.437-2.512-1.496-3.488-.456-.404-.456-.404-1.007-.564-.142.06-.252.136-.376.228-.732.503-1.569.581-2.434.512-.562-.104-1.213-.338-1.625-.75-.439 0-.944.457-1.25.75zM24.979 13.375c.72.607 1.111 1.378 1.201 2.312a3.49 3.49 0 0 1-.93 2.563c-.891.779-1.799.94-2.938.875-.744-.109-1.459-.57-1.932-1.145a3.48 3.48 0 0 1-.693-2.418c.141-.895.556-1.669 1.266-2.238 1.241-.866 2.806-.867 4.025.051zm-3.686 1.207a2.198 2.198 0 0 0-.498 1.405c.08.646.329 1.175.813 1.61.542.418 1.098.467 1.767.403a2.255 2.255 0 0 0 1.437-1.063c.277-.546.303-1.106.125-1.687a2.156 2.156 0 0 0-1.025-1.209c-.939-.437-1.915-.219-2.619.541zM11.104 13.375c.637.537.993 1.198 1.193 2a12.887 12.887 0 0 0 .028.327 3.384 3.384 0 0 1-.637 2.172l-.085.12c-.457.587-1.188.997-1.915 1.13-1.07.102-1.914-.1-2.783-.742-.596-.515-.974-1.286-1.078-2.06-.07-1.01.209-1.847.835-2.635 1.153-1.262 3.123-1.306 4.442-.312zm-3.686 1.203a2.189 2.189 0 0 0-.465 1.578c.089.528.3 1.041.732 1.377.615.43 1.119.54 1.877.467.211-.054.379-.134.563-.25l.132-.08c.491-.332.772-.79.905-1.365.09-.628-.058-1.156-.412-1.68-.37-.425-.866-.754-1.438-.813-.742-.05-1.385.224-1.895.766zM19.813 7.188l.153.125c.215.192.377.339.398.637-.061.288-.118.387-.363.551-.224.059-.289.073-.5 0a6.284 6.284 0 0 1-.448-.367c-.994-.877-2.225-1.189-3.528-1.122a4.62 4.62 0 0 0-2.559 1.113c-.474.419-.474.419-.743.434-.274-.072-.378-.135-.535-.371-.057-.225-.073-.291 0-.5.797-1.1 2.269-1.614 3.549-1.844a6.033 6.033 0 0 1 4.576 1.344z" style="fill:var(--color1, #fff)"/>
      <path fill="#fff" d="m17.5 8.25.166.066c.422.187.935.51 1.147.934.023.246.019.398-.09.621-.197.159-.309.189-.559.176-.288-.083-.494-.284-.725-.468-.586-.441-1.292-.484-2.001-.392-.486.126-.866.372-1.25.688-.25.167-.456.176-.75.125-.201-.162-.241-.269-.293-.52.08-.427.397-.684.738-.93 1.048-.659 2.476-.794 3.617-.301z" style="fill:var(--color1, #fff)"/>
      <path fill="#fff" d="M16.789 10.262c.225.132.4.252.523.488.037.257.026.389-.098.617-.203.177-.321.2-.59.195a2.8 2.8 0 0 1-.332-.191c-.171-.095-.29-.091-.48-.059a4.214 4.214 0 0 0-.215.129c-.179.111-.228.121-.453.125-.253-.081-.331-.146-.457-.379-.035-.245-.029-.382.086-.602.567-.513 1.31-.652 2.016-.324z" style="fill:var(--color1, #fff)"/>
    </symbol>
    <symbol id="icon-location" viewBox="0 0 32 32">
      <path fill="#fff" d="M25 13a9 9 0 1 0-18 0c0 3.692 2.954 8.504 9 14.268 6.046-5.764 9-10.576 9-14.268zm-9 17C8.666 23.334 5 17.666 5 13a11 11 0 0 1 22 0c0 4.666-3.666 10.334-11 17z" style="fill:var(--color1, #fff)"/>
      <path fill="#fff" d="M16 16a3.004 3.004 0 0 0 3-3 3.004 3.004 0 0 0-3-3 2.998 2.998 0 0 0-3 3 2.998 2.998 0 0 0 3 3zm0 2a4.997 4.997 0 0 1-5-5 4.997 4.997 0 0 1 5-5 4.997 4.997 0 0 1 5 5 4.997 4.997 0 0 1-5 5z" style="fill:var(--color1, #fff)"/>
    </symbol>
    <symbol id="icon-mail" viewBox="0 0 32 32">
      <path fill="#fff" d="M29.333 8c0-1.467-1.2-2.667-2.667-2.667H5.333A2.675 2.675 0 0 0 2.666 8v16c0 1.467 1.2 2.667 2.667 2.667h21.333c1.467 0 2.667-1.2 2.667-2.667V8zm-2.666 0L16 14.653 5.333 8h21.333zm0 16H5.334V10.667l10.667 6.667 10.667-6.667V24z" style="fill:var(--color1, #fff)"/>
    </symbol>
    <symbol id="icon-menu" viewBox="0 0 32 32">
      <path fill="#fff" d="M4 24v-2.667h24V24H4zm0-6.667v-2.667h24v2.667H4zm0-6.666V8h24v2.667H4z" style="fill:var(--color1, #fff)"/>
    </symbol>
    <symbol id="icon-method" viewBox="0 0 32 32">
      <path fill="#fff" d="M8.999 3.251c.874.671 1.381 1.55 1.602 2.623.14 1.097-.064 2.267-.742 3.167-.455.558-.455.558-.755.73a1.38 1.38 0 0 0-.417.354c-.073.339-.062.67-.051 1.016.018.821-.019 1.512-.571 2.171-.439.43-.954.622-1.558.645a2.287 2.287 0 0 1-1.617-.693c-.552-.675-.55-1.435-.522-2.262.033-.546.033-.546-.174-1.028a3.29 3.29 0 0 0-.444-.286c-.746-.628-1.225-1.537-1.375-2.5-.093-1.273.185-2.412 1.03-3.396 1.48-1.63 3.828-1.736 5.594-.54zM4.125 4.625c-.581.701-.752 1.546-.688 2.438.166.873.615 1.525 1.313 2.063.148.091.295.178.449.258.113.117.113.117.238.68h2.125l.125-.563c.145-.149.145-.149.32-.258l.187-.124.18-.118a3.095 3.095 0 0 0 1.188-2c.066-.949-.144-1.722-.762-2.445-.624-.664-1.362-1.035-2.277-1.07-.958.014-1.75.456-2.398 1.141zm1.312 6.5c-.07.868-.07.868.188 1.313.246.236.467.434.819.439.415-.028.669-.162.951-.475.292-.421.168-.666.168-1.277H5.438zM15.297 3.485l.153-.002c1.141-.011 2.246.003 3.363.267l.173.041c2.836.692 5.425 2.407 7.14 4.772l.078.106c1.118 1.545 1.791 3.287 2.172 5.144l.028.132c.168.835.109 1.709.097 2.555l.111-.004c.166-.005.332-.008.499-.012l.174-.006c.417-.006.417-.006.631.117.118.216.114.416.085.655-.089.209-.089.209-.213.415l-.067.113a28.571 28.571 0 0 0-.355.588c-.14.234-.283.466-.427.697l-.078.125-.231.367-.071.114c-.168.262-.168.262-.307.332-.355.035-.355.035-.5 0a2.72 2.72 0 0 1-.562-.717l-.067-.116-.21-.366a67.02 67.02 0 0 0-.209-.361l-.135-.235a21.47 21.47 0 0 0-.499-.824c-.117-.228-.11-.38-.067-.631.089-.138.089-.138.25-.25.204-.031.404-.023.609-.016l.168.003c.137.003.273.007.41.012-.043-3.052-.884-5.911-3-8.177a8.922 8.922 0 0 1-.336-.389c-.271-.31-.591-.555-.914-.809l-.183-.15c-2.264-1.82-5.315-2.644-8.192-2.35-.231.028-.461.061-.691.1a3.483 3.483 0 0 1-.559.025l-.094-.359-.053-.202c-.041-.188-.041-.188-.041-.438l.371-.09.209-.051c.445-.09.889-.12 1.342-.124zM27.437 17.5l.18.332.101.187c.095.175.095.175.219.356.255-.085.288-.207.418-.438l.118-.207c.094-.145.094-.145.089-.231h-1.125zM3.5 14.937c.361-.007.705.011 1.062.063l.002.178c.037 3.182.78 6.118 3.001 8.503.109.117.212.238.313.362 1.648 1.934 4.461 3.068 6.934 3.332.562.04 1.125.055 1.688.062l-.004-.105-.012-.473-.006-.165c-.004-.24-.005-.397.117-.607.216-.121.416-.116.655-.087.209.089.209.089.415.213l.113.067a28.571 28.571 0 0 0 .588.355c.234.14.465.283.697.427l.125.078a117.673 117.673 0 0 1 .481.302c.262.168.262.168.332.307.035.355.035.355 0 .5a2.708 2.708 0 0 1-.718.562l-.116.067-.366.21-.361.209-.235.135c-.279.16-.553.327-.824.499-.227.117-.38.11-.631.067-.138-.087-.138-.087-.25-.25-.031-.214-.023-.425-.016-.641l.003-.177.012-.432-.137.004c-1.067.027-2.07-.026-3.113-.254l-.16-.034c-3.174-.706-5.943-2.761-7.69-5.477l-.15-.238-.072-.113c-.739-1.187-1.197-2.526-1.491-3.887a17.27 17.27 0 0 1-.033-.147c-.246-1.115-.172-2.281-.154-3.416zm14 12.5v1.125l.332-.18.187-.101c.175-.095.175-.095.356-.219-.085-.255-.207-.288-.437-.418l-.207-.118c-.145-.094-.145-.094-.23-.089zM29.574 22.484l.238.203.15.113c.608.513 1.009 1.216 1.287 1.949l.082.211c.408 1.25.246 2.648-.32 3.813a5.127 5.127 0 0 1-.699 1.039l-.137.187c-.659.77-1.864 1.382-2.863 1.5-1.472.109-2.847-.112-4.007-1.085l-.118-.103-.15-.113c-.608-.512-1.009-1.216-1.287-1.949l-.082-.21c-.408-1.25-.246-2.648.32-3.813.194-.381.419-.716.699-1.039l.115-.152c1.639-1.948 4.828-2.05 6.771-.551zm-5.933 1.215c-.835.906-1.157 1.937-1.108 3.154.074 1.048.584 1.932 1.343 2.647.838.69 1.828 1.037 2.915.99 1.051-.122 2.101-.583 2.773-1.428.749-.997 1.012-2.002.875-3.25-.173-1.025-.783-1.942-1.621-2.551-1.693-1.11-3.679-.922-5.176.437z" style="fill:var(--color1, #fff)"/>
      <path fill="#fff" d="M26 23.5h1v.5l.246.008c.408.047.711.24.981.546.211.303.258.583.273.946-.173.008-.346.015-.52.019l-.149.008a1.624 1.624 0 0 1-.394-.027c-.112-.15-.112-.15-.187-.313-.227-.177-.507-.143-.781-.141l-.144-.001c-.339-.001-.339-.001-.637.142-.087.173-.074.308-.063.5.108.203.108.203.313.25.103.006.207.008.311.009l.186.004.384.003c.452.011.806.1 1.182.359.39.411.535.801.523 1.366a1.486 1.486 0 0 1-.457.939c-.343.269-.624.403-1.066.382v.5h-1v-.5l-.246-.008c-.408-.047-.711-.24-.981-.546-.211-.303-.258-.583-.272-.946.173-.008.346-.015.519-.019l.149-.008c.138-.003.259-.002.394.027.108.15.108.15.188.313.257.153.525.144.816.141l.134.001c.233-.001.419-.005.612-.142.087-.173.074-.308.063-.5-.108-.203-.108-.203-.313-.25a6.42 6.42 0 0 0-.311-.009l-.186-.004a24.579 24.579 0 0 0-.384-.003c-.452-.011-.806-.1-1.182-.359-.39-.411-.535-.801-.523-1.366.044-.374.186-.676.457-.939.343-.269.624-.403 1.066-.382v-.5zM14 19.5h6v1h-6v-1zM14 16h6v1h-6v-1zM14 12.5h6v1h-6v-1zM10.188 9.625c.255.101.423.284.609.477l.096.098.232.238c-.096.23-.236.374-.414.547l-.155.151-.119.114a12.513 12.513 0 0 1-.938-.875c.219-.262.443-.512.688-.75zM2.688 9.625c.23.096.374.236.547.414l.151.155.114.119c-.276.331-.567.637-.875.938a9.765 9.765 0 0 1-.75-.688c.101-.255.284-.423.477-.609l.098-.096.238-.232zM10.432 2.002c.18.084.29.203.427.346l.151.156.114.121c-.101.255-.284.423-.477.609l-.098.096-.238.232c-.23-.096-.374-.236-.547-.414l-.151-.155-.114-.119c.196-.234.394-.465.602-.688l.104-.113c.107-.074.107-.074.227-.072zM2.621 2.015a.742.742 0 0 1 .317.218l.1.102.102.107.105.108c.085.087.17.175.254.264a9.765 9.765 0 0 1-.688.75c-.255-.101-.423-.284-.609-.477l-.096-.098-.232-.238c.092-.209.209-.356.367-.52l.128-.136c.129-.095.129-.095.251-.08zM11.25 6.063h1.25v1.063h-1.25V6.063zM.5 6.063h1.25v1.063H.5V6.063zM6 .563h1v1.25H6V.563zM12 19.5h1v1h-1v-1zM12 16h1v1h-1v-1zM12 12.5h1v1h-1v-1z" style="fill:var(--color1, #fff)"/>
    </symbol>
    <symbol id="icon-target" viewBox="0 0 32 32">
      <path fill="none" stroke="#c86fff" stroke-width="4" d="M16 2c7.732 0 14 6.268 14 14s-6.268 14-14 14S2 23.732 2 16 8.268 2 16 2z" style="stroke:var(--color2, #c86fff)"/>
      <path fill="#c86fff" d="M24 16a8 8 0 1 1-16 0 8 8 0 0 1 16 0z" style="fill:var(--color2, #c86fff)"/>
    </symbol>
    <symbol id="icon-test" viewBox="0 0 32 32">
      <path fill="#fff" d="M8.999 3.251c.874.671 1.381 1.55 1.602 2.623.14 1.097-.064 2.267-.742 3.167-.455.558-.455.558-.755.73a1.38 1.38 0 0 0-.417.354c-.073.339-.062.67-.051 1.016.018.821-.019 1.512-.571 2.171-.439.43-.954.622-1.558.645a2.287 2.287 0 0 1-1.617-.693c-.552-.675-.55-1.435-.522-2.262.033-.546.033-.546-.174-1.028a3.29 3.29 0 0 0-.444-.286c-.746-.628-1.225-1.537-1.375-2.5-.093-1.273.185-2.412 1.03-3.396 1.48-1.63 3.828-1.736 5.594-.54zM4.125 4.625c-.581.701-.752 1.546-.688 2.438.166.873.615 1.525 1.313 2.063.148.091.295.178.449.258.113.117.113.117.238.68h2.125l.125-.563c.145-.149.145-.149.32-.258l.187-.124.18-.118a3.095 3.095 0 0 0 1.188-2c.066-.949-.144-1.722-.762-2.445-.624-.664-1.362-1.035-2.277-1.07-.958.014-1.75.456-2.398 1.141zm1.312 6.5c-.07.868-.07.868.188 1.313.246.236.467.434.819.439.415-.028.669-.162.951-.475.292-.421.168-.666.168-1.277H5.438zM15.297 3.485l.153-.002c1.141-.011 2.246.003 3.363.267l.173.041c2.836.692 5.425 2.407 7.14 4.772l.078.106c1.118 1.545 1.791 3.287 2.172 5.144l.028.132c.168.835.109 1.709.097 2.555l.111-.004c.166-.005.332-.008.499-.012l.174-.006c.417-.006.417-.006.631.117.118.216.114.416.085.655-.089.209-.089.209-.213.415l-.067.113a28.571 28.571 0 0 0-.355.588c-.14.234-.283.466-.427.697l-.078.125-.231.367-.071.114c-.168.262-.168.262-.307.332-.355.035-.355.035-.5 0a2.72 2.72 0 0 1-.562-.717l-.067-.116-.21-.366a67.02 67.02 0 0 0-.209-.361l-.135-.235a21.47 21.47 0 0 0-.499-.824c-.117-.228-.11-.38-.067-.631.089-.138.089-.138.25-.25.204-.031.404-.023.609-.016l.168.003c.137.003.273.007.41.012-.043-3.052-.884-5.911-3-8.177a8.922 8.922 0 0 1-.336-.389c-.271-.31-.591-.555-.914-.809l-.183-.15c-2.264-1.82-5.315-2.644-8.192-2.35-.231.028-.461.061-.691.1a3.483 3.483 0 0 1-.559.025l-.094-.359-.053-.202c-.041-.188-.041-.188-.041-.438l.371-.09.209-.051c.445-.09.889-.12 1.342-.124zM27.437 17.5l.18.332.101.187c.095.175.095.175.219.356.255-.085.288-.207.418-.438l.118-.207c.094-.145.094-.145.089-.231h-1.125zM3.5 14.937c.361-.007.705.011 1.062.063l.002.178c.037 3.182.78 6.118 3.001 8.503.109.117.212.238.313.362 1.648 1.934 4.461 3.068 6.934 3.332.562.04 1.125.055 1.688.062l-.004-.105-.012-.473-.006-.165c-.004-.24-.005-.397.117-.607.216-.121.416-.116.655-.087.209.089.209.089.415.213l.113.067a28.571 28.571 0 0 0 .588.355c.234.14.465.283.697.427l.125.078a117.673 117.673 0 0 1 .481.302c.262.168.262.168.332.307.035.355.035.355 0 .5a2.708 2.708 0 0 1-.718.562l-.116.067-.366.21-.361.209-.235.135c-.279.16-.553.327-.824.499-.227.117-.38.11-.631.067-.138-.087-.138-.087-.25-.25-.031-.214-.023-.425-.016-.641l.003-.177.012-.432-.137.004c-1.067.027-2.07-.026-3.113-.254l-.16-.034c-3.174-.706-5.943-2.761-7.69-5.477l-.15-.238-.072-.113c-.739-1.187-1.197-2.526-1.491-3.887a17.27 17.27 0 0 1-.033-.147c-.246-1.115-.172-2.281-.154-3.416zm14 12.5v1.125l.332-.18.187-.101c.175-.095.175-.095.356-.219-.085-.255-.207-.288-.437-.418l-.207-.118c-.145-.094-.145-.094-.23-.089zM29.574 22.484l.238.203.15.113c.608.513 1.009 1.216 1.287 1.949l.082.211c.408 1.25.246 2.648-.32 3.813a5.127 5.127 0 0 1-.699 1.039l-.137.187c-.659.77-1.864 1.382-2.863 1.5-1.472.109-2.847-.112-4.007-1.085l-.118-.103-.15-.113c-.608-.512-1.009-1.216-1.287-1.949l-.082-.21c-.408-1.25-.246-2.648.32-3.813.194-.381.419-.716.699-1.039l.115-.152c1.639-1.948 4.828-2.05 6.771-.551zm-5.933 1.215c-.835.906-1.157 1.937-1.108 3.154.074 1.048.584 1.932 1.343 2.647.838.69 1.828 1.037 2.915.99 1.051-.122 2.101-.583 2.773-1.428.749-.997 1.012-2.002.875-3.25-.173-1.025-.783-1.942-1.621-2.551-1.693-1.11-3.679-.922-5.176.437z" style="fill:var(--color1, #fff)"/>
      <path fill="#fff" d="M26 23.5h1v.5l.246.008c.408.047.711.24.981.546.211.303.258.583.273.946-.173.008-.346.015-.52.019l-.149.008a1.624 1.624 0 0 1-.394-.027c-.112-.15-.112-.15-.187-.313-.227-.177-.507-.143-.781-.141l-.144-.001c-.339-.001-.339-.001-.637.142-.087.173-.074.308-.063.5.108.203.108.203.313.25.103.006.207.008.311.009l.186.004.384.003c.452.011.806.1 1.182.359.39.411.535.801.523 1.366a1.486 1.486 0 0 1-.457.939c-.343.269-.624.403-1.066.382v.5h-1v-.5l-.246-.008c-.408-.047-.711-.24-.981-.546-.211-.303-.258-.583-.272-.946.173-.008.346-.015.519-.019l.149-.008c.138-.003.259-.002.394.027.108.15.108.15.188.313.257.153.525.144.816.141l.134.001c.233-.001.419-.005.612-.142.087-.173.074-.308.063-.5-.108-.203-.108-.203-.313-.25a6.42 6.42 0 0 0-.311-.009l-.186-.004a24.579 24.579 0 0 0-.384-.003c-.452-.011-.806-.1-1.182-.359-.39-.411-.535-.801-.523-1.366.044-.374.186-.676.457-.939.343-.269.624-.403 1.066-.382v-.5zM14 19.5h6v1h-6v-1zM14 16h6v1h-6v-1zM14 12.5h6v1h-6v-1zM10.188 9.625c.255.101.423.284.609.477l.096.098.232.238c-.096.23-.236.374-.414.547l-.155.151-.119.114a12.513 12.513 0 0 1-.938-.875c.219-.262.443-.512.688-.75zM2.688 9.625c.23.096.374.236.547.414l.151.155.114.119c-.276.331-.567.637-.875.938a9.765 9.765 0 0 1-.75-.688c.101-.255.284-.423.477-.609l.098-.096.238-.232zM10.432 2.002c.18.084.29.203.427.346l.151.156.114.121c-.101.255-.284.423-.477.609l-.098.096-.238.232c-.23-.096-.374-.236-.547-.414l-.151-.155-.114-.119c.196-.234.394-.465.602-.688l.104-.113c.107-.074.107-.074.227-.072zM2.621 2.015a.742.742 0 0 1 .317.218l.1.102.102.107.105.108c.085.087.17.175.254.264a9.765 9.765 0 0 1-.688.75c-.255-.101-.423-.284-.609-.477l-.096-.098-.232-.238c.092-.209.209-.356.367-.52l.128-.136c.129-.095.129-.095.251-.08zM11.25 6.063h1.25v1.063h-1.25V6.063zM.5 6.063h1.25v1.063H.5V6.063zM6 .563h1v1.25H6V.563zM12 19.5h1v1h-1v-1zM12 16h1v1h-1v-1zM12 12.5h1v1h-1v-1z" style="fill:var(--color1, #fff)"/>
    </symbol>
    <symbol id="icon-teacher" viewBox="0 0 41 40" fill="none">
  <path d="M35.8953 8.81415L20.8953 3.81416C20.6387 3.72861 20.3613 3.72861 20.1047 3.81416L5.10469 8.81415C4.85579 8.89713 4.63931 9.05631 4.48591 9.26916C4.33252 9.48201 4.24998 9.73773 4.25 10.0001V22.5001C4.25 22.8316 4.3817 23.1496 4.61612 23.384C4.85054 23.6184 5.16848 23.7501 5.5 23.7501C5.83152 23.7501 6.14946 23.6184 6.38388 23.384C6.6183 23.1496 6.75 22.8316 6.75 22.5001V11.7345L11.9984 13.4829C10.604 15.7357 10.1606 18.4498 10.7655 21.0293C11.3705 23.6088 12.9744 25.8428 15.225 27.2407C12.4125 28.3438 9.98125 30.3392 8.20312 33.0673C8.11065 33.2047 8.04642 33.3592 8.01416 33.5217C7.9819 33.6842 7.98226 33.8514 8.01522 34.0138C8.04818 34.1761 8.11308 34.3303 8.20615 34.4673C8.29922 34.6044 8.4186 34.7216 8.55735 34.8121C8.6961 34.9026 8.85146 34.9646 9.01439 34.9945C9.17732 35.0244 9.34457 35.0217 9.50643 34.9864C9.66829 34.9511 9.82152 34.884 9.95722 34.789C10.0929 34.694 10.2084 34.5729 10.2969 34.4329C12.6516 30.8204 16.3703 28.7501 20.5 28.7501C24.6297 28.7501 28.3484 30.8204 30.7031 34.4329C30.8865 34.7054 31.1697 34.8948 31.4915 34.9601C31.8134 35.0255 32.148 34.9615 32.4231 34.7821C32.6982 34.6027 32.8916 34.3222 32.9616 34.0013C33.0315 33.6804 32.9723 33.3449 32.7969 33.0673C31.0187 30.3392 28.5781 28.3438 25.775 27.2407C28.0235 25.8428 29.6258 23.6103 30.2307 21.0327C30.8356 18.4551 30.3935 15.7429 29.0016 13.4907L35.8953 11.1938C36.1443 11.1109 36.3608 10.9518 36.5143 10.7389C36.6677 10.526 36.7503 10.2703 36.7503 10.0079C36.7503 9.74551 36.6677 9.48976 36.5143 9.27691C36.3608 9.06406 36.1443 8.90489 35.8953 8.82197V8.81415ZM28 18.7501C28.0003 19.9358 27.7195 21.1047 27.1806 22.1609C26.6418 23.2171 25.8601 24.1304 24.8999 24.826C23.9397 25.5216 22.8282 25.9796 21.6567 26.1625C20.4851 26.3454 19.2869 26.2478 18.1604 25.878C17.0338 25.5081 16.0111 24.8764 15.1759 24.0347C14.3408 23.193 13.7171 22.1652 13.3561 21.0358C12.9951 19.9064 12.907 18.7075 13.099 17.5374C13.2911 16.3674 13.7578 15.2595 14.4609 14.3048L20.1047 16.1798C20.3613 16.2653 20.6387 16.2653 20.8953 16.1798L26.5391 14.3048C27.4887 15.5923 28.0008 17.1502 28 18.7501ZM20.5 13.6829L9.45312 10.0001L20.5 6.31728L31.5469 10.0001L20.5 13.6829Z" fill="url(#icon-gradient-unique)" />
  <defs>
    <linearGradient id="icon-gradient-unique" x1="25.5" y1="4.00009" x2="8.5" y2="35.0001" gradientUnits="userSpaceOnUse">
      <stop stop-color="white" />
      <stop offset="1" stop-color="#828282" stop-opacity="0.2" />
    </linearGradient>
  </defs>
</symbol>
<symbol id="icon-reviews" viewBox="0 0 41 40" fill="none">
  <path d="M33 5H8C7.33696 5 6.70107 5.26339 6.23223 5.73223C5.76339 6.20107 5.5 6.83696 5.5 7.5V32.5C5.5 33.163 5.76339 33.7989 6.23223 34.2678C6.70107 34.7366 7.33696 35 8 35H33C33.663 35 34.2989 34.7366 34.7678 34.2678C35.2366 33.7989 35.5 33.163 35.5 32.5V7.5C35.5 6.83696 35.2366 6.20107 34.7678 5.73223C34.2989 5.26339 33.663 5 33 5ZM14.25 25C14.4972 25 14.7389 25.0733 14.9445 25.2107C15.15 25.348 15.3102 25.5432 15.4049 25.7716C15.4995 26.0001 15.5242 26.2514 15.476 26.4939C15.4278 26.7363 15.3087 26.9591 15.1339 27.1339C14.9591 27.3087 14.7363 27.4277 14.4939 27.476C14.2514 27.5242 14.0001 27.4995 13.7716 27.4049C13.5432 27.3102 13.348 27.15 13.2107 26.9445C13.0733 26.7389 13 26.4972 13 26.25C13 25.9185 13.1317 25.6005 13.3661 25.3661C13.6005 25.1317 13.9185 25 14.25 25ZM8 7.5H13V22.7156C12.166 23.0105 11.4631 23.5907 11.0155 24.3537C10.5679 25.1167 10.4044 26.0134 10.554 26.8853C10.7036 27.7572 11.1566 28.5481 11.8329 29.1183C12.5093 29.6884 13.3654 30.0012 14.25 30.0012C15.1346 30.0012 15.9907 29.6884 16.6671 29.1183C17.3434 28.5481 17.7964 27.7572 17.946 26.8853C18.0956 26.0134 17.9321 25.1167 17.4845 24.3537C17.0369 23.5907 16.334 23.0105 15.5 22.7156V18.0172L23 25.5172V32.5H8V7.5ZM33 32.5H25.5V25C25.5001 24.8358 25.4679 24.6732 25.4052 24.5214C25.3424 24.3697 25.2504 24.2318 25.1344 24.1156L15.5 14.4828V7.5H20.5V11.25C20.4999 11.4142 20.5321 11.5768 20.5948 11.7286C20.6576 11.8803 20.7496 12.0182 20.8656 12.1344L23.3656 14.6344C23.1235 15.1385 22.9985 15.6908 23 16.25C23 16.9917 23.2199 17.7167 23.632 18.3334C24.044 18.9501 24.6297 19.4307 25.3149 19.7145C26.0002 19.9984 26.7542 20.0726 27.4816 19.9279C28.209 19.7833 28.8772 19.4261 29.4017 18.9017C29.9261 18.3772 30.2833 17.709 30.4279 16.9816C30.5726 16.2542 30.4984 15.5002 30.2145 14.8149C29.9307 14.1297 29.4501 13.544 28.8334 13.132C28.2167 12.7199 27.4917 12.5 26.75 12.5C26.1907 12.499 25.6383 12.6245 25.1344 12.8672L23 10.7328V7.5H33V32.5ZM26.75 15C26.9972 15 27.2389 15.0733 27.4445 15.2107C27.65 15.348 27.8102 15.5432 27.9049 15.7716C27.9995 16.0001 28.0242 16.2514 27.976 16.4939C27.9277 16.7363 27.8087 16.9591 27.6339 17.1339C27.4591 17.3087 27.2363 17.4278 26.9939 17.476C26.7514 17.5242 26.5001 17.4995 26.2716 17.4049C26.0432 17.3102 25.848 17.15 25.7107 16.9445C25.5733 16.7389 25.5 16.4972 25.5 16.25C25.5 15.9185 25.6317 15.6005 25.8661 15.3661C26.1005 15.1317 26.4185 15 26.75 15Z" fill="url(#icon-gradient-another)" />
  <defs>
    <linearGradient id="icon-gradient-another" x1="25.1152" y1="5.23997" x2="8.46874" y2="34.4416" gradientUnits="userSpaceOnUse">
      <stop stop-color="white" />
      <stop offset="1" stop-color="#828282" stop-opacity="0.2" />
    </linearGradient>
  </defs>
</symbol>
<symbol id="icon-wallet" viewBox="0 0 41 40">
  <path d="M36.75 8.75H11.75V6.25C11.75 5.91848 11.6183 5.60054 11.3839 5.36612C11.1495 5.1317 10.8315 5 10.5 5H8C6.67392 5 5.40215 5.52678 4.46447 6.46447C3.52678 7.40215 3 8.67392 3 10V27.5C3 28.8261 3.52678 30.0979 4.46447 31.0355C5.40215 31.9732 6.67392 32.5 8 32.5H36.75C37.0815 32.5 37.3995 32.3683 37.6339 32.1339C37.8683 31.8995 38 31.5815 38 31.25V10C38 9.66848 37.8683 9.35054 37.6339 9.11612C37.3995 8.8817 37.0815 8.75 36.75 8.75ZM5.5 10C5.5 9.33696 5.76339 8.70107 6.23223 8.23223C6.70107 7.76339 7.33696 7.5 8 7.5H9.25V22.5H8C7.1221 22.4988 6.25954 22.7301 5.5 23.1703V10ZM35.5 30H8C7.33696 30 6.70107 29.7366 6.23223 29.2678C5.76339 28.7989 5.5 28.163 5.5 27.5C5.5 26.837 5.76339 26.2011 6.23223 25.7322C6.70107 25.2634 7.33696 25 8 25H10.5C10.8315 25 11.1495 24.8683 11.3839 24.6339C11.6183 24.3995 11.75 24.0815 11.75 23.75V11.25H35.5V30ZM16.75 21.25C16.4185 21.25 16.1005 21.3817 15.8661 21.6161C15.6317 21.8505 15.5 22.1685 15.5 22.5C15.5 22.8315 15.6317 23.1495 15.8661 23.3839C16.1005 23.6183 16.4185 23.75 16.75 23.75H19.25V25C19.25 25.3315 19.3817 25.6495 19.6161 25.8839C19.8505 26.1183 20.1685 26.25 20.5 26.25C20.8315 26.25 21.1495 26.1183 21.3839 25.8839C21.6183 25.6495 21.75 25.3315 21.75 25V23.75H25.5V25C25.5 25.3315 25.6317 25.6495 25.8661 25.8839C26.1005 26.1183 26.4185 26.25 26.75 26.25C27.0815 26.25 27.3995 26.1183 27.6339 25.8839C27.8683 25.6495 28 25.3315 28 25V23.75H30.5C30.8315 23.75 31.1495 23.6183 31.3839 23.3839C31.6183 23.1495 31.75 22.8315 31.75 22.5C31.75 22.1685 31.6183 21.8505 31.3839 21.6161C31.1495 21.3817 30.8315 21.25 30.5 21.25H28V18.75H30.5C30.8315 18.75 31.1495 18.6183 31.3839 18.3839C31.6183 18.1495 31.75 17.8315 31.75 17.5C31.75 17.1685 31.6183 16.8505 31.3839 16.6161C31.1495 16.3817 30.8315 16.25 30.5 16.25H28V15C28 14.6685 27.8683 14.3505 27.6339 14.1161C27.3995 13.8817 27.0815 13.75 26.75 13.75C26.4185 13.75 26.1005 13.8817 25.8661 14.1161C25.6317 14.3505 25.5 14.6685 25.5 15V16.25H21.75V15C21.75 14.6685 21.6183 14.3505 21.3839 14.1161C21.1495 13.8817 20.8315 13.75 20.5 13.75C20.1685 13.75 19.8505 13.8817 19.6161 14.1161C19.3817 14.3505 19.25 14.6685 19.25 15V16.25H16.75C16.4185 16.25 16.1005 16.3817 15.8661 16.6161C15.6317 16.8505 15.5 17.1685 15.5 17.5C15.5 17.8315 15.6317 18.1495 15.8661 18.3839C16.1005 18.6183 16.4185 18.75 16.75 18.75H19.25V21.25H16.75ZM21.75 18.75H25.5V21.25H21.75V18.75Z" fill="url(#paint0_linear_2009_623)" />
  <defs>
    <linearGradient id="paint0_linear_2009_623" x1="25.8844" y1="5.21998" x2="12.6533" y2="34.7605" gradientUnits="userSpaceOnUse">
      <stop stop-color="white" />
      <stop offset="1" stop-color="#828282" stop-opacity="0.2" />
    </linearGradient>
  </defs>
</symbol>
<symbol id="icon-planet" viewBox="0 0 41 40">
  <path d="M38.7984 9.48129C37.6031 7.42035 34.4484 6.95629 29.6578 8.12816C27.4399 6.41323 24.7855 5.35469 21.9961 5.07279C19.2068 4.7909 16.3943 5.29696 13.8781 6.53347C11.3619 7.76999 9.24301 9.6874 7.76201 12.0679C6.28101 14.4483 5.49732 17.1965 5.49997 20C5.50016 20.6431 5.54087 21.2855 5.62184 21.9235C1.29528 26.4063 1.35778 29.0625 2.20309 30.5188C2.99997 31.9 4.66247 32.5 6.84997 32.5C8.36875 32.4686 9.87858 32.2588 11.3484 31.875C13.5665 33.5883 16.2206 34.6453 19.0093 34.9261C21.7979 35.2069 24.6094 34.7002 27.1246 33.4635C29.6398 32.2269 31.7578 30.3098 33.2383 27.9299C34.7187 25.5501 35.5023 22.8028 35.5 20C35.5003 19.3601 35.4601 18.7208 35.3797 18.086C37.3328 16.0547 38.6328 14.125 39.075 12.4735C39.3797 11.3297 39.2875 10.3235 38.7984 9.48129ZM20.5 7.50004C23.3311 7.50294 26.0777 8.46555 28.2912 10.2307C30.5048 11.9959 32.0545 14.4593 32.6875 17.2188C30.0218 19.7282 26.414 22.3016 22.989 24.2703C18.6843 26.7407 14.95 28.2813 11.9718 29.125C10.1376 27.4143 8.86086 25.1909 8.30788 22.7444C7.7549 20.2979 7.95128 17.7416 8.87147 15.4083C9.79165 13.0749 11.393 11.0727 13.467 9.66218C15.5411 8.25168 17.9917 7.49827 20.5 7.50004ZM4.36559 29.2641C4.13747 28.8719 4.26403 28.1328 4.71247 27.2328C5.15592 26.3896 5.69544 25.6005 6.32028 24.8813C6.93966 26.6758 7.89405 28.3365 9.13278 29.775C6.43747 30.2282 4.75622 29.9391 4.36559 29.2641ZM20.5 32.5C18.3924 32.5022 16.3189 31.9677 14.475 30.9469C17.8595 29.7499 21.1252 28.2403 24.2297 26.4375C27.6015 24.5016 30.5859 22.4032 32.9906 20.3313C32.9015 23.5862 31.547 26.6782 29.2147 28.9504C26.8824 31.2226 23.7561 32.496 20.5 32.5ZM36.6593 11.8266C36.3937 12.8125 35.6922 13.9407 34.6859 15.1282C34.0681 13.3315 33.1136 11.669 31.8734 10.2297C34.0937 9.86254 36.15 9.89066 36.639 10.736C36.7797 10.9813 36.7875 11.3485 36.6593 11.8266Z" fill="url(#paint0_linear_2009_637)" />
  <defs>
    <linearGradient id="paint0_linear_2009_637" x1="26.2693" y1="5.23684" x2="11.6587" y2="37.2699" gradientUnits="userSpaceOnUse">
      <stop stop-color="white" />
      <stop offset="1" stop-color="#828282" stop-opacity="0.2" />
    </linearGradient>
  </defs>
</symbol>
<symbol id="icon-book" viewBox="0 0 41 40">
  <path d="M33 3.75H11.75C10.4239 3.75 9.15215 4.27678 8.21447 5.21447C7.27678 6.15215 6.75 7.42392 6.75 8.75V35C6.75 35.3315 6.8817 35.6495 7.11612 35.8839C7.35054 36.1183 7.66848 36.25 8 36.25H30.5C30.8315 36.25 31.1495 36.1183 31.3839 35.8839C31.6183 35.6495 31.75 35.3315 31.75 35C31.75 34.6685 31.6183 34.3505 31.3839 34.1161C31.1495 33.8817 30.8315 33.75 30.5 33.75H9.25C9.25 33.087 9.51339 32.4511 9.98223 31.9822C10.4511 31.5134 11.087 31.25 11.75 31.25H33C33.3315 31.25 33.6495 31.1183 33.8839 30.8839C34.1183 30.6495 34.25 30.3315 34.25 30V5C34.25 4.66848 34.1183 4.35054 33.8839 4.11612C33.6495 3.8817 33.3315 3.75 33 3.75ZM31.75 28.75H11.75C10.8721 28.7488 10.0095 28.9801 9.25 29.4203V8.75C9.25 8.08696 9.51339 7.45107 9.98223 6.98223C10.4511 6.51339 11.087 6.25 11.75 6.25H31.75V28.75Z" fill="url(#paint0_linear_2009_463)" />
  <defs>
    <linearGradient id="paint0_linear_2009_463" x1="24.7306" y1="4.00997" x2="5.30779" y2="32.8401" gradientUnits="userSpaceOnUse">
      <stop stop-color="white" />
      <stop offset="1" stop-color="#828282" stop-opacity="0.2" />
    </linearGradient>
  </defs>
</symbol>
  </defs>
</svg>
